P3
64 64
255
0 0 0
4 0 0
8 0 0
12 0 0
16 0 0
20 0 0
24 0 0
28 0 0
32 0 0
36 0 0
40 0 0
44 0 0
48 0 0
52 0 0
56 0 0
60 0 0
65 0 0
69 0 0
73 0 0
77 0 0
81 0 0
85 0 0
89 0 0
93 0 0
97 0 0
101 0 0
105 0 0
109 0 0
113 0 0
117 0 0
121 0 0
125 0 0
130 0 0
134 0 0
138 0 0
142 0 0
146 0 0
150 0 0
154 0 0
158 0 0
162 0 0
166 0 0
170 0 0
174 0 0
178 0 0
182 0 0
186 0 0
190 0 0
195 0 0
199 0 0
203 0 0
207 0 0
211 0 0
215 0 0
219 0 0
223 0 0
227 0 0
231 0 0
235 0 0
239 0 0
243 0 0
247 0 0
251 0 0
255 0 0
0 4 0
4 4 0
8 4 0
12 4 0
16 4 0
20 4 0
24 4 0
28 4 0
32 4 0
36 4 0
40 4 0
44 4 0
48 4 0
52 4 0
56 4 0
60 4 0
65 4 0
69 4 0
73 4 0
77 4 0
81 4 0
85 4 0
89 4 0
93 4 0
97 4 0
101 4 0
105 4 0
109 4 0
113 4 0
117 4 0
121 4 0
125 4 0
130 4 0
134 4 0
138 4 0
142 4 0
146 4 0
150 4 0
154 4 0
158 4 0
162 4 0
166 4 0
170 4 0
174 4 0
178 4 0
182 4 0
186 4 0
190 4 0
195 4 0
199 4 0
203 4 0
207 4 0
211 4 0
215 4 0
219 4 0
223 4 0
227 4 0
231 4 0
235 4 0
239 4 0
243 4 0
247 4 0
251 4 0
255 4 0
0 8 0
4 8 0
8 8 0
12 8 0
16 8 0
20 8 0
24 8 0
28 8 0
32 8 0
36 8 0
40 8 0
44 8 0
48 8 0
52 8 0
56 8 0
60 8 0
65 8 0
69 8 0
73 8 0
77 8 0
81 8 0
85 8 0
89 8 0
93 8 0
97 8 0
101 8 0
105 8 0
109 8 0
113 8 0
117 8 0
121 8 0
125 8 0
130 8 0
134 8 0
138 8 0
142 8 0
146 8 0
150 8 0
154 8 0
158 8 0
162 8 0
166 8 0
170 8 0
174 8 0
178 8 0
182 8 0
186 8 0
190 8 0
195 8 0
199 8 0
203 8 0
207 8 0
211 8 0
215 8 0
219 8 0
223 8 0
227 8 0
231 8 0
235 8 0
239 8 0
243 8 0
247 8 0
251 8 0
255 8 0
0 12 0
4 12 0
8 12 0
12 12 0
16 12 0
20 12 0
24 12 0
28 12 0
32 12 0
36 12 0
40 12 0
44 12 0
48 12 0
52 12 0
56 12 0
60 12 0
65 12 0
69 12 0
73 12 0
77 12 0
81 12 0
85 12 0
89 12 0
93 12 0
97 12 0
101 12 0
105 12 0
109 12 0
113 12 0
117 12 0
121 12 0
125 12 0
130 12 0
134 12 0
138 12 0
142 12 0
146 12 0
150 12 0
154 12 0
158 12 0
162 12 0
166 12 0
170 12 0
174 12 0
178 12 0
182 12 0
186 12 0
190 12 0
195 12 0
199 12 0
203 12 0
207 12 0
211 12 0
215 12 0
219 12 0
223 12 0
227 12 0
231 12 0
235 12 0
239 12 0
243 12 0
247 12 0
251 12 0
255 12 0
0 16 0
4 16 0
8 16 0
12 16 0
16 16 0
20 16 0
24 16 0
28 16 0
32 16 0
36 16 0
40 16 0
44 16 0
48 16 0
52 16 0
56 16 0
60 16 0
65 16 0
69 16 0
73 16 0
77 16 0
81 16 0
85 16 0
89 16 0
93 16 0
97 16 0
101 16 0
105 16 0
109 16 0
113 16 0
117 16 0
121 16 0
125 16 0
130 16 0
134 16 0
138 16 0
142 16 0
146 16 0
150 16 0
154 16 0
158 16 0
162 16 0
166 16 0
170 16 0
174 16 0
178 16 0
182 16 0
186 16 0
190 16 0
195 16 0
199 16 0
203 16 0
207 16 0
211 16 0
215 16 0
219 16 0
223 16 0
227 16 0
231 16 0
235 16 0
239 16 0
243 16 0
247 16 0
251 16 0
255 16 0
0 20 0
4 20 0
8 20 0
12 20 0
16 20 0
20 20 0
24 20 0
28 20 0
32 20 0
36 20 0
40 20 0
44 20 0
48 20 0
52 20 0
56 20 0
60 20 0
65 20 0
69 20 0
73 20 0
77 20 0
81 20 0
85 20 0
89 20 0
93 20 0
97 20 0
101 20 0
105 20 0
109 20 0
113 20 0
117 20 0
121 20 0
125 20 0
130 20 0
134 20 0
138 20 0
142 20 0
146 20 0
150 20 0
154 20 0
158 20 0
162 20 0
166 20 0
170 20 0
174 20 0
178 20 0
182 20 0
186 20 0
190 20 0
195 20 0
199 20 0
203 20 0
207 20 0
211 20 0
215 20 0
219 20 0
223 20 0
227 20 0
231 20 0
235 20 0
239 20 0
243 20 0
247 20 0
251 20 0
255 20 0
0 24 0
4 24 0
8 24 0
12 24 0
16 24 0
20 24 0
24 24 0
28 24 0
32 24 0
36 24 0
40 24 0
44 24 0
48 24 0
52 24 0
56 24 0
60 24 0
65 24 0
69 24 0
73 24 0
77 24 0
81 24 0
85 24 0
89 24 0
93 24 0
97 24 0
101 24 0
105 24 0
109 24 0
113 24 0
117 24 0
121 24 0
125 24 0
130 24 0
134 24 0
138 24 0
142 24 0
146 24 0
150 24 0
154 24 0
158 24 0
162 24 0
166 24 0
170 24 0
174 24 0
178 24 0
182 24 0
186 24 0
190 24 0
195 24 0
199 24 0
203 24 0
207 24 0
211 24 0
215 24 0
219 24 0
223 24 0
227 24 0
231 24 0
235 24 0
239 24 0
243 24 0
247 24 0
251 24 0
255 24 0
0 28 0
4 28 0
8 28 0
12 28 0
16 28 0
20 28 0
24 28 0
28 28 0
32 28 0
36 28 0
40 28 0
44 28 0
48 28 0
52 28 0
56 28 0
60 28 0
65 28 0
69 28 0
73 28 0
77 28 0
81 28 0
85 28 0
89 28 0
93 28 0
97 28 0
101 28 0
105 28 0
109 28 0
113 28 0
117 28 0
121 28 0
125 28 0
130 28 0
134 28 0
138 28 0
142 28 0
146 28 0
150 28 0
154 28 0
158 28 0
162 28 0
166 28 0
170 28 0
174 28 0
178 28 0
182 28 0
186 28 0
190 28 0
195 28 0
199 28 0
203 28 0
207 28 0
211 28 0
215 28 0
219 28 0
223 28 0
227 28 0
231 28 0
235 28 0
239 28 0
243 28 0
247 28 0
251 28 0
255 28 0
0 32 0
4 32 0
8 32 0
12 32 0
16 32 0
20 32 0
24 32 0
28 32 0
32 32 0
36 32 0
40 32 0
44 32 0
48 32 0
52 32 0
56 32 0
60 32 0
65 32 0
69 32 0
73 32 0
77 32 0
81 32 0
85 32 0
89 32 0
93 32 0
97 32 0
101 32 0
105 32 0
109 32 0
113 32 0
117 32 0
121 32 0
125 32 0
130 32 0
134 32 0
138 32 0
142 32 0
146 32 0
150 32 0
154 32 0
158 32 0
162 32 0
166 32 0
170 32 0
174 32 0
178 32 0
182 32 0
186 32 0
190 32 0
195 32 0
199 32 0
203 32 0
207 32 0
211 32 0
215 32 0
219 32 0
223 32 0
227 32 0
231 32 0
235 32 0
239 32 0
243 32 0
247 32 0
251 32 0
255 32 0
0 36 0
4 36 0
8 36 0
12 36 0
16 36 0
20 36 0
24 36 0
28 36 0
32 36 0
36 36 0
40 36 0
44 36 0
48 36 0
52 36 0
56 36 0
60 36 0
65 36 0
69 36 0
73 36 0
77 36 0
81 36 0
85 36 0
89 36 0
93 36 0
97 36 0
101 36 0
105 36 0
109 36 0
113 36 0
117 36 0
121 36 0
125 36 0
130 36 0
134 36 0
138 36 0
142 36 0
146 36 0
150 36 0
154 36 0
158 36 0
162 36 0
166 36 0
170 36 0
174 36 0
178 36 0
182 36 0
186 36 0
190 36 0
195 36 0
199 36 0
203 36 0
207 36 0
211 36 0
215 36 0
219 36 0
223 36 0
227 36 0
231 36 0
235 36 0
239 36 0
243 36 0
247 36 0
251 36 0
255 36 0
0 40 0
4 40 0
8 40 0
12 40 0
16 40 0
20 40 0
24 40 0
28 40 0
32 40 0
36 40 0
40 40 0
44 40 0
48 40 0
52 40 0
56 40 0
60 40 0
65 40 0
69 40 0
73 40 0
77 40 0
81 40 0
85 40 0
89 40 0
93 40 0
97 40 0
101 40 0
105 40 0
109 40 0
113 40 0
117 40 0
121 40 0
125 40 0
130 40 0
134 40 0
138 40 0
142 40 0
146 40 0
150 40 0
154 40 0
158 40 0
162 40 0
166 40 0
170 40 0
174 40 0
178 40 0
182 40 0
186 40 0
190 40 0
195 40 0
199 40 0
203 40 0
207 40 0
211 40 0
215 40 0
219 40 0
223 40 0
227 40 0
231 40 0
235 40 0
239 40 0
243 40 0
247 40 0
251 40 0
255 40 0
0 44 0
4 44 0
8 44 0
12 44 0
16 44 0
20 44 0
24 44 0
28 44 0
32 44 0
36 44 0
40 44 0
44 44 0
48 44 0
52 44 0
56 44 0
60 44 0
65 44 0
69 44 0
73 44 0
77 44 0
81 44 0
85 44 0
89 44 0
93 44 0
97 44 0
101 44 0
105 44 0
109 44 0
113 44 0
117 44 0
121 44 0
125 44 0
130 44 0
134 44 0
138 44 0
142 44 0
146 44 0
150 44 0
154 44 0
158 44 0
162 44 0
166 44 0
170 44 0
174 44 0
178 44 0
182 44 0
186 44 0
190 44 0
195 44 0
199 44 0
203 44 0
207 44 0
211 44 0
215 44 0
219 44 0
223 44 0
227 44 0
231 44 0
235 44 0
239 44 0
243 44 0
247 44 0
251 44 0
255 44 0
0 48 0
4 48 0
8 48 0
12 48 0
16 48 0
20 48 0
24 48 0
28 48 0
32 48 0
36 48 0
40 48 0
44 48 0
48 48 0
52 48 0
56 48 0
60 48 0
65 48 0
69 48 0
73 48 0
77 48 0
81 48 0
85 48 0
89 48 0
93 48 0
97 48 0
101 48 0
105 48 0
109 48 0
113 48 0
117 48 0
121 48 0
125 48 0
130 48 0
134 48 0
138 48 0
142 48 0
146 48 0
150 48 0
154 48 0
158 48 0
162 48 0
166 48 0
170 48 0
174 48 0
178 48 0
182 48 0
186 48 0
190 48 0
195 48 0
199 48 0
203 48 0
207 48 0
211 48 0
215 48 0
219 48 0
223 48 0
227 48 0
231 48 0
235 48 0
239 48 0
243 48 0
247 48 0
251 48 0
255 48 0
0 52 0
4 52 0
8 52 0
12 52 0
16 52 0
20 52 0
24 52 0
28 52 0
32 52 0
36 52 0
40 52 0
44 52 0
48 52 0
52 52 0
56 52 0
60 52 0
65 52 0
69 52 0
73 52 0
77 52 0
81 52 0
85 52 0
89 52 0
93 52 0
97 52 0
101 52 0
105 52 0
109 52 0
113 52 0
117 52 0
121 52 0
125 52 0
130 52 0
134 52 0
138 52 0
142 52 0
146 52 0
150 52 0
154 52 0
158 52 0
162 52 0
166 52 0
170 52 0
174 52 0
178 52 0
182 52 0
186 52 0
190 52 0
195 52 0
199 52 0
203 52 0
207 52 0
211 52 0
215 52 0
219 52 0
223 52 0
227 52 0
231 52 0
235 52 0
239 52 0
243 52 0
247 52 0
251 52 0
255 52 0
0 56 0
4 56 0
8 56 0
12 56 0
16 56 0
20 56 0
24 56 0
28 56 0
32 56 0
36 56 0
40 56 0
44 56 0
48 56 0
52 56 0
56 56 0
60 56 0
65 56 0
69 56 0
73 56 0
77 56 0
81 56 0
85 56 0
89 56 0
93 56 0
97 56 0
101 56 0
105 56 0
109 56 0
113 56 0
117 56 0
121 56 0
125 56 0
130 56 0
134 56 0
138 56 0
142 56 0
146 56 0
150 56 0
154 56 0
158 56 0
162 56 0
166 56 0
170 56 0
174 56 0
178 56 0
182 56 0
186 56 0
190 56 0
195 56 0
199 56 0
203 56 0
207 56 0
211 56 0
215 56 0
219 56 0
223 56 0
227 56 0
231 56 0
235 56 0
239 56 0
243 56 0
247 56 0
251 56 0
255 56 0
0 60 0
4 60 0
8 60 0
12 60 0
16 60 0
20 60 0
24 60 0
28 60 0
32 60 0
36 60 0
40 60 0
44 60 0
48 60 0
52 60 0
56 60 0
60 60 0
65 60 0
69 60 0
73 60 0
77 60 0
81 60 0
85 60 0
89 60 0
93 60 0
97 60 0
101 60 0
105 60 0
109 60 0
113 60 0
117 60 0
121 60 0
125 60 0
130 60 0
134 60 0
138 60 0
142 60 0
146 60 0
150 60 0
154 60 0
158 60 0
162 60 0
166 60 0
170 60 0
174 60 0
178 60 0
182 60 0
186 60 0
190 60 0
195 60 0
199 60 0
203 60 0
207 60 0
211 60 0
215 60 0
219 60 0
223 60 0
227 60 0
231 60 0
235 60 0
239 60 0
243 60 0
247 60 0
251 60 0
255 60 0
0 65 0
4 65 0
8 65 0
12 65 0
16 65 0
20 65 0
24 65 0
28 65 0
32 65 0
36 65 0
40 65 0
44 65 0
48 65 0
52 65 0
56 65 0
60 65 0
65 65 0
69 65 0
73 65 0
77 65 0
81 65 0
85 65 0
89 65 0
93 65 0
97 65 0
101 65 0
105 65 0
109 65 0
113 65 0
117 65 0
121 65 0
125 65 0
130 65 0
134 65 0
138 65 0
142 65 0
146 65 0
150 65 0
154 65 0
158 65 0
162 65 0
166 65 0
170 65 0
174 65 0
178 65 0
182 65 0
186 65 0
190 65 0
195 65 0
199 65 0
203 65 0
207 65 0
211 65 0
215 65 0
219 65 0
223 65 0
227 65 0
231 65 0
235 65 0
239 65 0
243 65 0
247 65 0
251 65 0
255 65 0
0 69 0
4 69 0
8 69 0
12 69 0
16 69 0
20 69 0
24 69 0
28 69 0
32 69 0
36 69 0
40 69 0
44 69 0
48 69 0
52 69 0
56 69 0
60 69 0
65 69 0
69 69 0
73 69 0
77 69 0
81 69 0
85 69 0
89 69 0
93 69 0
97 69 0
101 69 0
105 69 0
109 69 0
113 69 0
117 69 0
121 69 0
125 69 0
130 69 0
134 69 0
138 69 0
142 69 0
146 69 0
150 69 0
154 69 0
158 69 0
162 69 0
166 69 0
170 69 0
174 69 0
178 69 0
182 69 0
186 69 0
190 69 0
195 69 0
199 69 0
203 69 0
207 69 0
211 69 0
215 69 0
219 69 0
223 69 0
227 69 0
231 69 0
235 69 0
239 69 0
243 69 0
247 69 0
251 69 0
255 69 0
0 73 0
4 73 0
8 73 0
12 73 0
16 73 0
20 73 0
24 73 0
28 73 0
32 73 0
36 73 0
40 73 0
44 73 0
48 73 0
52 73 0
56 73 0
60 73 0
65 73 0
69 73 0
73 73 0
77 73 0
81 73 0
85 73 0
89 73 0
93 73 0
97 73 0
101 73 0
105 73 0
109 73 0
113 73 0
117 73 0
121 73 0
125 73 0
130 73 0
134 73 0
138 73 0
142 73 0
146 73 0
150 73 0
154 73 0
158 73 0
162 73 0
166 73 0
170 73 0
174 73 0
178 73 0
182 73 0
186 73 0
190 73 0
195 73 0
199 73 0
203 73 0
207 73 0
211 73 0
215 73 0
219 73 0
223 73 0
227 73 0
231 73 0
235 73 0
239 73 0
243 73 0
247 73 0
251 73 0
255 73 0
0 77 0
4 77 0
8 77 0
12 77 0
16 77 0
20 77 0
24 77 0
28 77 0
32 77 0
36 77 0
40 77 0
44 77 0
48 77 0
52 77 0
56 77 0
60 77 0
65 77 0
69 77 0
73 77 0
77 77 0
81 77 0
85 77 0
89 77 0
93 77 0
97 77 0
101 77 0
105 77 0
109 77 0
113 77 0
117 77 0
121 77 0
125 77 0
130 77 0
134 77 0
138 77 0
142 77 0
146 77 0
150 77 0
154 77 0
158 77 0
162 77 0
166 77 0
170 77 0
174 77 0
178 77 0
182 77 0
186 77 0
190 77 0
195 77 0
199 77 0
203 77 0
207 77 0
211 77 0
215 77 0
219 77 0
223 77 0
227 77 0
231 77 0
235 77 0
239 77 0
243 77 0
247 77 0
251 77 0
255 77 0
0 81 0
4 81 0
8 81 0
12 81 0
16 81 0
20 81 0
24 81 0
28 81 0
32 81 0
36 81 0
40 81 0
44 81 0
48 81 0
52 81 0
56 81 0
60 81 0
65 81 0
69 81 0
73 81 0
77 81 0
81 81 0
85 81 0
89 81 0
93 81 0
97 81 0
101 81 0
105 81 0
109 81 0
113 81 0
117 81 0
121 81 0
125 81 0
130 81 0
134 81 0
138 81 0
142 81 0
146 81 0
150 81 0
154 81 0
158 81 0
162 81 0
166 81 0
170 81 0
174 81 0
178 81 0
182 81 0
186 81 0
190 81 0
195 81 0
199 81 0
203 81 0
207 81 0
211 81 0
215 81 0
219 81 0
223 81 0
227 81 0
231 81 0
235 81 0
239 81 0
243 81 0
247 81 0
251 81 0
255 81 0
0 85 0
4 85 0
8 85 0
12 85 0
16 85 0
20 85 0
24 85 0
28 85 0
32 85 0
36 85 0
40 85 0
44 85 0
48 85 0
52 85 0
56 85 0
60 85 0
65 85 0
69 85 0
73 85 0
77 85 0
81 85 0
85 85 0
89 85 0
93 85 0
97 85 0
101 85 0
105 85 0
109 85 0
113 85 0
117 85 0
121 85 0
125 85 0
130 85 0
134 85 0
138 85 0
142 85 0
146 85 0
150 85 0
154 85 0
158 85 0
162 85 0
166 85 0
170 85 0
174 85 0
178 85 0
182 85 0
186 85 0
190 85 0
195 85 0
199 85 0
203 85 0
207 85 0
211 85 0
215 85 0
219 85 0
223 85 0
227 85 0
231 85 0
235 85 0
239 85 0
243 85 0
247 85 0
251 85 0
255 85 0
0 89 0
4 89 0
8 89 0
12 89 0
16 89 0
20 89 0
24 89 0
28 89 0
32 89 0
36 89 0
40 89 0
44 89 0
48 89 0
52 89 0
56 89 0
60 89 0
65 89 0
69 89 0
73 89 0
77 89 0
81 89 0
85 89 0
89 89 0
93 89 0
97 89 0
101 89 0
105 89 0
109 89 0
113 89 0
117 89 0
121 89 0
125 89 0
130 89 0
134 89 0
138 89 0
142 89 0
146 89 0
150 89 0
154 89 0
158 89 0
162 89 0
166 89 0
170 89 0
174 89 0
178 89 0
182 89 0
186 89 0
190 89 0
195 89 0
199 89 0
203 89 0
207 89 0
211 89 0
215 89 0
219 89 0
223 89 0
227 89 0
231 89 0
235 89 0
239 89 0
243 89 0
247 89 0
251 89 0
255 89 0
0 93 0
4 93 0
8 93 0
12 93 0
16 93 0
20 93 0
24 93 0
28 93 0
32 93 0
36 93 0
40 93 0
44 93 0
48 93 0
52 93 0
56 93 0
60 93 0
65 93 0
69 93 0
73 93 0
77 93 0
81 93 0
85 93 0
89 93 0
93 93 0
97 93 0
101 93 0
105 93 0
109 93 0
113 93 0
117 93 0
121 93 0
125 93 0
130 93 0
134 93 0
138 93 0
142 93 0
146 93 0
150 93 0
154 93 0
158 93 0
162 93 0
166 93 0
170 93 0
174 93 0
178 93 0
182 93 0
186 93 0
190 93 0
195 93 0
199 93 0
203 93 0
207 93 0
211 93 0
215 93 0
219 93 0
223 93 0
227 93 0
231 93 0
235 93 0
239 93 0
243 93 0
247 93 0
251 93 0
255 93 0
0 97 0
4 97 0
8 97 0
12 97 0
16 97 0
20 97 0
24 97 0
28 97 0
32 97 0
36 97 0
40 97 0
44 97 0
48 97 0
52 97 0
56 97 0
60 97 0
65 97 0
69 97 0
73 97 0
77 97 0
81 97 0
85 97 0
89 97 0
93 97 0
97 97 0
101 97 0
105 97 0
109 97 0
113 97 0
117 97 0
121 97 0
125 97 0
130 97 0
134 97 0
138 97 0
142 97 0
146 97 0
150 97 0
154 97 0
158 97 0
162 97 0
166 97 0
170 97 0
174 97 0
178 97 0
182 97 0
186 97 0
190 97 0
195 97 0
199 97 0
203 97 0
207 97 0
211 97 0
215 97 0
219 97 0
223 97 0
227 97 0
231 97 0
235 97 0
239 97 0
243 97 0
247 97 0
251 97 0
255 97 0
0 101 0
4 101 0
8 101 0
12 101 0
16 101 0
20 101 0
24 101 0
28 101 0
32 101 0
36 101 0
40 101 0
44 101 0
48 101 0
52 101 0
56 101 0
60 101 0
65 101 0
69 101 0
73 101 0
77 101 0
81 101 0
85 101 0
89 101 0
93 101 0
97 101 0
101 101 0
105 101 0
109 101 0
113 101 0
117 101 0
121 101 0
125 101 0
130 101 0
134 101 0
138 101 0
142 101 0
146 101 0
150 101 0
154 101 0
158 101 0
162 101 0
166 101 0
170 101 0
174 101 0
178 101 0
182 101 0
186 101 0
190 101 0
195 101 0
199 101 0
203 101 0
207 101 0
211 101 0
215 101 0
219 101 0
223 101 0
227 101 0
231 101 0
235 101 0
239 101 0
243 101 0
247 101 0
251 101 0
255 101 0
0 105 0
4 105 0
8 105 0
12 105 0
16 105 0
20 105 0
24 105 0
28 105 0
32 105 0
36 105 0
40 105 0
44 105 0
48 105 0
52 105 0
56 105 0
60 105 0
65 105 0
69 105 0
73 105 0
77 105 0
81 105 0
85 105 0
89 105 0
93 105 0
97 105 0
101 105 0
105 105 0
109 105 0
113 105 0
117 105 0
121 105 0
125 105 0
130 105 0
134 105 0
138 105 0
142 105 0
146 105 0
150 105 0
154 105 0
158 105 0
162 105 0
166 105 0
170 105 0
174 105 0
178 105 0
182 105 0
186 105 0
190 105 0
195 105 0
199 105 0
203 105 0
207 105 0
211 105 0
215 105 0
219 105 0
223 105 0
227 105 0
231 105 0
235 105 0
239 105 0
243 105 0
247 105 0
251 105 0
255 105 0
0 109 0
4 109 0
8 109 0
12 109 0
16 109 0
20 109 0
24 109 0
28 109 0
32 109 0
36 109 0
40 109 0
44 109 0
48 109 0
52 109 0
56 109 0
60 109 0
65 109 0
69 109 0
73 109 0
77 109 0
81 109 0
85 109 0
89 109 0
93 109 0
97 109 0
101 109 0
105 109 0
109 109 0
113 109 0
117 109 0
121 109 0
125 109 0
130 109 0
134 109 0
138 109 0
142 109 0
146 109 0
150 109 0
154 109 0
158 109 0
162 109 0
166 109 0
170 109 0
174 109 0
178 109 0
182 109 0
186 109 0
190 109 0
195 109 0
199 109 0
203 109 0
207 109 0
211 109 0
215 109 0
219 109 0
223 109 0
227 109 0
231 109 0
235 109 0
239 109 0
243 109 0
247 109 0
251 109 0
255 109 0
0 113 0
4 113 0
8 113 0
12 113 0
16 113 0
20 113 0
24 113 0
28 113 0
32 113 0
36 113 0
40 113 0
44 113 0
48 113 0
52 113 0
56 113 0
60 113 0
65 113 0
69 113 0
73 113 0
77 113 0
81 113 0
85 113 0
89 113 0
93 113 0
97 113 0
101 113 0
105 113 0
109 113 0
113 113 0
117 113 0
121 113 0
125 113 0
130 113 0
134 113 0
138 113 0
142 113 0
146 113 0
150 113 0
154 113 0
158 113 0
162 113 0
166 113 0
170 113 0
174 113 0
178 113 0
182 113 0
186 113 0
190 113 0
195 113 0
199 113 0
203 113 0
207 113 0
211 113 0
215 113 0
219 113 0
223 113 0
227 113 0
231 113 0
235 113 0
239 113 0
243 113 0
247 113 0
251 113 0
255 113 0
0 117 0
4 117 0
8 117 0
12 117 0
16 117 0
20 117 0
24 117 0
28 117 0
32 117 0
36 117 0
40 117 0
44 117 0
48 117 0
52 117 0
56 117 0
60 117 0
65 117 0
69 117 0
73 117 0
77 117 0
81 117 0
85 117 0
89 117 0
93 117 0
97 117 0
101 117 0
105 117 0
109 117 0
113 117 0
117 117 0
121 117 0
125 117 0
130 117 0
134 117 0
138 117 0
142 117 0
146 117 0
150 117 0
154 117 0
158 117 0
162 117 0
166 117 0
170 117 0
174 117 0
178 117 0
182 117 0
186 117 0
190 117 0
195 117 0
199 117 0
203 117 0
207 117 0
211 117 0
215 117 0
219 117 0
223 117 0
227 117 0
231 117 0
235 117 0
239 117 0
243 117 0
247 117 0
251 117 0
255 117 0
0 121 0
4 121 0
8 121 0
12 121 0
16 121 0
20 121 0
24 121 0
28 121 0
32 121 0
36 121 0
40 121 0
44 121 0
48 121 0
52 121 0
56 121 0
60 121 0
65 121 0
69 121 0
73 121 0
77 121 0
81 121 0
85 121 0
89 121 0
93 121 0
97 121 0
101 121 0
105 121 0
109 121 0
113 121 0
117 121 0
121 121 0
125 121 0
130 121 0
134 121 0
138 121 0
142 121 0
146 121 0
150 121 0
154 121 0
158 121 0
162 121 0
166 121 0
170 121 0
174 121 0
178 121 0
182 121 0
186 121 0
190 121 0
195 121 0
199 121 0
203 121 0
207 121 0
211 121 0
215 121 0
219 121 0
223 121 0
227 121 0
231 121 0
235 121 0
239 121 0
243 121 0
247 121 0
251 121 0
255 121 0
0 125 0
4 125 0
8 125 0
12 125 0
16 125 0
20 125 0
24 125 0
28 125 0
32 125 0
36 125 0
40 125 0
44 125 0
48 125 0
52 125 0
56 125 0
60 125 0
65 125 0
69 125 0
73 125 0
77 125 0
81 125 0
85 125 0
89 125 0
93 125 0
97 125 0
101 125 0
105 125 0
109 125 0
113 125 0
117 125 0
121 125 0
125 125 0
130 125 0
134 125 0
138 125 0
142 125 0
146 125 0
150 125 0
154 125 0
158 125 0
162 125 0
166 125 0
170 125 0
174 125 0
178 125 0
182 125 0
186 125 0
190 125 0
195 125 0
199 125 0
203 125 0
207 125 0
211 125 0
215 125 0
219 125 0
223 125 0
227 125 0
231 125 0
235 125 0
239 125 0
243 125 0
247 125 0
251 125 0
255 125 0
0 130 0
4 130 0
8 130 0
12 130 0
16 130 0
20 130 0
24 130 0
28 130 0
32 130 0
36 130 0
40 130 0
44 130 0
48 130 0
52 130 0
56 130 0
60 130 0
65 130 0
69 130 0
73 130 0
77 130 0
81 130 0
85 130 0
89 130 0
93 130 0
97 130 0
101 130 0
105 130 0
109 130 0
113 130 0
117 130 0
121 130 0
125 130 0
130 130 0
134 130 0
138 130 0
142 130 0
146 130 0
150 130 0
154 130 0
158 130 0
162 130 0
166 130 0
170 130 0
174 130 0
178 130 0
182 130 0
186 130 0
190 130 0
195 130 0
199 130 0
203 130 0
207 130 0
211 130 0
215 130 0
219 130 0
223 130 0
227 130 0
231 130 0
235 130 0
239 130 0
243 130 0
247 130 0
251 130 0
255 130 0
0 134 0
4 134 0
8 134 0
12 134 0
16 134 0
20 134 0
24 134 0
28 134 0
32 134 0
36 134 0
40 134 0
44 134 0
48 134 0
52 134 0
56 134 0
60 134 0
65 134 0
69 134 0
73 134 0
77 134 0
81 134 0
85 134 0
89 134 0
93 134 0
97 134 0
101 134 0
105 134 0
109 134 0
113 134 0
117 134 0
121 134 0
125 134 0
130 134 0
134 134 0
138 134 0
142 134 0
146 134 0
150 134 0
154 134 0
158 134 0
162 134 0
166 134 0
170 134 0
174 134 0
178 134 0
182 134 0
186 134 0
190 134 0
195 134 0
199 134 0
203 134 0
207 134 0
211 134 0
215 134 0
219 134 0
223 134 0
227 134 0
231 134 0
235 134 0
239 134 0
243 134 0
247 134 0
251 134 0
255 134 0
0 138 0
4 138 0
8 138 0
12 138 0
16 138 0
20 138 0
24 138 0
28 138 0
32 138 0
36 138 0
40 138 0
44 138 0
48 138 0
52 138 0
56 138 0
60 138 0
65 138 0
69 138 0
73 138 0
77 138 0
81 138 0
85 138 0
89 138 0
93 138 0
97 138 0
101 138 0
105 138 0
109 138 0
113 138 0
117 138 0
121 138 0
125 138 0
130 138 0
134 138 0
138 138 0
142 138 0
146 138 0
150 138 0
154 138 0
158 138 0
162 138 0
166 138 0
170 138 0
174 138 0
178 138 0
182 138 0
186 138 0
190 138 0
195 138 0
199 138 0
203 138 0
207 138 0
211 138 0
215 138 0
219 138 0
223 138 0
227 138 0
231 138 0
235 138 0
239 138 0
243 138 0
247 138 0
251 138 0
255 138 0
0 142 0
4 142 0
8 142 0
12 142 0
16 142 0
20 142 0
24 142 0
28 142 0
32 142 0
36 142 0
40 142 0
44 142 0
48 142 0
52 142 0
56 142 0
60 142 0
65 142 0
69 142 0
73 142 0
77 142 0
81 142 0
85 142 0
89 142 0
93 142 0
97 142 0
101 142 0
105 142 0
109 142 0
113 142 0
117 142 0
121 142 0
125 142 0
130 142 0
134 142 0
138 142 0
142 142 0
146 142 0
150 142 0
154 142 0
158 142 0
162 142 0
166 142 0
170 142 0
174 142 0
178 142 0
182 142 0
186 142 0
190 142 0
195 142 0
199 142 0
203 142 0
207 142 0
211 142 0
215 142 0
219 142 0
223 142 0
227 142 0
231 142 0
235 142 0
239 142 0
243 142 0
247 142 0
251 142 0
255 142 0
0 146 0
4 146 0
8 146 0
12 146 0
16 146 0
20 146 0
24 146 0
28 146 0
32 146 0
36 146 0
40 146 0
44 146 0
48 146 0
52 146 0
56 146 0
60 146 0
65 146 0
69 146 0
73 146 0
77 146 0
81 146 0
85 146 0
89 146 0
93 146 0
97 146 0
101 146 0
105 146 0
109 146 0
113 146 0
117 146 0
121 146 0
125 146 0
130 146 0
134 146 0
138 146 0
142 146 0
146 146 0
150 146 0
154 146 0
158 146 0
162 146 0
166 146 0
170 146 0
174 146 0
178 146 0
182 146 0
186 146 0
190 146 0
195 146 0
199 146 0
203 146 0
207 146 0
211 146 0
215 146 0
219 146 0
223 146 0
227 146 0
231 146 0
235 146 0
239 146 0
243 146 0
247 146 0
251 146 0
255 146 0
0 150 0
4 150 0
8 150 0
12 150 0
16 150 0
20 150 0
24 150 0
28 150 0
32 150 0
36 150 0
40 150 0
44 150 0
48 150 0
52 150 0
56 150 0
60 150 0
65 150 0
69 150 0
73 150 0
77 150 0
81 150 0
85 150 0
89 150 0
93 150 0
97 150 0
101 150 0
105 150 0
109 150 0
113 150 0
117 150 0
121 150 0
125 150 0
130 150 0
134 150 0
138 150 0
142 150 0
146 150 0
150 150 0
154 150 0
158 150 0
162 150 0
166 150 0
170 150 0
174 150 0
178 150 0
182 150 0
186 150 0
190 150 0
195 150 0
199 150 0
203 150 0
207 150 0
211 150 0
215 150 0
219 150 0
223 150 0
227 150 0
231 150 0
235 150 0
239 150 0
243 150 0
247 150 0
251 150 0
255 150 0
0 154 0
4 154 0
8 154 0
12 154 0
16 154 0
20 154 0
24 154 0
28 154 0
32 154 0
36 154 0
40 154 0
44 154 0
48 154 0
52 154 0
56 154 0
60 154 0
65 154 0
69 154 0
73 154 0
77 154 0
81 154 0
85 154 0
89 154 0
93 154 0
97 154 0
101 154 0
105 154 0
109 154 0
113 154 0
117 154 0
121 154 0
125 154 0
130 154 0
134 154 0
138 154 0
142 154 0
146 154 0
150 154 0
154 154 0
158 154 0
162 154 0
166 154 0
170 154 0
174 154 0
178 154 0
182 154 0
186 154 0
190 154 0
195 154 0
199 154 0
203 154 0
207 154 0
211 154 0
215 154 0
219 154 0
223 154 0
227 154 0
231 154 0
235 154 0
239 154 0
243 154 0
247 154 0
251 154 0
255 154 0
0 158 0
4 158 0
8 158 0
12 158 0
16 158 0
20 158 0
24 158 0
28 158 0
32 158 0
36 158 0
40 158 0
44 158 0
48 158 0
52 158 0
56 158 0
60 158 0
65 158 0
69 158 0
73 158 0
77 158 0
81 158 0
85 158 0
89 158 0
93 158 0
97 158 0
101 158 0
105 158 0
109 158 0
113 158 0
117 158 0
121 158 0
125 158 0
130 158 0
134 158 0
138 158 0
142 158 0
146 158 0
150 158 0
154 158 0
158 158 0
162 158 0
166 158 0
170 158 0
174 158 0
178 158 0
182 158 0
186 158 0
190 158 0
195 158 0
199 158 0
203 158 0
207 158 0
211 158 0
215 158 0
219 158 0
223 158 0
227 158 0
231 158 0
235 158 0
239 158 0
243 158 0
247 158 0
251 158 0
255 158 0
0 162 0
4 162 0
8 162 0
12 162 0
16 162 0
20 162 0
24 162 0
28 162 0
32 162 0
36 162 0
40 162 0
44 162 0
48 162 0
52 162 0
56 162 0
60 162 0
65 162 0
69 162 0
73 162 0
77 162 0
81 162 0
85 162 0
89 162 0
93 162 0
97 162 0
101 162 0
105 162 0
109 162 0
113 162 0
117 162 0
121 162 0
125 162 0
130 162 0
134 162 0
138 162 0
142 162 0
146 162 0
150 162 0
154 162 0
158 162 0
162 162 0
166 162 0
170 162 0
174 162 0
178 162 0
182 162 0
186 162 0
190 162 0
195 162 0
199 162 0
203 162 0
207 162 0
211 162 0
215 162 0
219 162 0
223 162 0
227 162 0
231 162 0
235 162 0
239 162 0
243 162 0
247 162 0
251 162 0
255 162 0
0 166 0
4 166 0
8 166 0
12 166 0
16 166 0
20 166 0
24 166 0
28 166 0
32 166 0
36 166 0
40 166 0
44 166 0
48 166 0
52 166 0
56 166 0
60 166 0
65 166 0
69 166 0
73 166 0
77 166 0
81 166 0
85 166 0
89 166 0
93 166 0
97 166 0
101 166 0
105 166 0
109 166 0
113 166 0
117 166 0
121 166 0
125 166 0
130 166 0
134 166 0
138 166 0
142 166 0
146 166 0
150 166 0
154 166 0
158 166 0
162 166 0
166 166 0
170 166 0
174 166 0
178 166 0
182 166 0
186 166 0
190 166 0
195 166 0
199 166 0
203 166 0
207 166 0
211 166 0
215 166 0
219 166 0
223 166 0
227 166 0
231 166 0
235 166 0
239 166 0
243 166 0
247 166 0
251 166 0
255 166 0
0 170 0
4 170 0
8 170 0
12 170 0
16 170 0
20 170 0
24 170 0
28 170 0
32 170 0
36 170 0
40 170 0
44 170 0
48 170 0
52 170 0
56 170 0
60 170 0
65 170 0
69 170 0
73 170 0
77 170 0
81 170 0
85 170 0
89 170 0
93 170 0
97 170 0
101 170 0
105 170 0
109 170 0
113 170 0
117 170 0
121 170 0
125 170 0
130 170 0
134 170 0
138 170 0
142 170 0
146 170 0
150 170 0
154 170 0
158 170 0
162 170 0
166 170 0
170 170 0
174 170 0
178 170 0
182 170 0
186 170 0
190 170 0
195 170 0
199 170 0
203 170 0
207 170 0
211 170 0
215 170 0
219 170 0
223 170 0
227 170 0
231 170 0
235 170 0
239 170 0
243 170 0
247 170 0
251 170 0
255 170 0
0 174 0
4 174 0
8 174 0
12 174 0
16 174 0
20 174 0
24 174 0
28 174 0
32 174 0
36 174 0
40 174 0
44 174 0
48 174 0
52 174 0
56 174 0
60 174 0
65 174 0
69 174 0
73 174 0
77 174 0
81 174 0
85 174 0
89 174 0
93 174 0
97 174 0
101 174 0
105 174 0
109 174 0
113 174 0
117 174 0
121 174 0
125 174 0
130 174 0
134 174 0
138 174 0
142 174 0
146 174 0
150 174 0
154 174 0
158 174 0
162 174 0
166 174 0
170 174 0
174 174 0
178 174 0
182 174 0
186 174 0
190 174 0
195 174 0
199 174 0
203 174 0
207 174 0
211 174 0
215 174 0
219 174 0
223 174 0
227 174 0
231 174 0
235 174 0
239 174 0
243 174 0
247 174 0
251 174 0
255 174 0
0 178 0
4 178 0
8 178 0
12 178 0
16 178 0
20 178 0
24 178 0
28 178 0
32 178 0
36 178 0
40 178 0
44 178 0
48 178 0
52 178 0
56 178 0
60 178 0
65 178 0
69 178 0
73 178 0
77 178 0
81 178 0
85 178 0
89 178 0
93 178 0
97 178 0
101 178 0
105 178 0
109 178 0
113 178 0
117 178 0
121 178 0
125 178 0
130 178 0
134 178 0
138 178 0
142 178 0
146 178 0
150 178 0
154 178 0
158 178 0
162 178 0
166 178 0
170 178 0
174 178 0
178 178 0
182 178 0
186 178 0
190 178 0
195 178 0
199 178 0
203 178 0
207 178 0
211 178 0
215 178 0
219 178 0
223 178 0
227 178 0
231 178 0
235 178 0
239 178 0
243 178 0
247 178 0
251 178 0
255 178 0
0 182 0
4 182 0
8 182 0
12 182 0
16 182 0
20 182 0
24 182 0
28 182 0
32 182 0
36 182 0
40 182 0
44 182 0
48 182 0
52 182 0
56 182 0
60 182 0
65 182 0
69 182 0
73 182 0
77 182 0
81 182 0
85 182 0
89 182 0
93 182 0
97 182 0
101 182 0
105 182 0
109 182 0
113 182 0
117 182 0
121 182 0
125 182 0
130 182 0
134 182 0
138 182 0
142 182 0
146 182 0
150 182 0
154 182 0
158 182 0
162 182 0
166 182 0
170 182 0
174 182 0
178 182 0
182 182 0
186 182 0
190 182 0
195 182 0
199 182 0
203 182 0
207 182 0
211 182 0
215 182 0
219 182 0
223 182 0
227 182 0
231 182 0
235 182 0
239 182 0
243 182 0
247 182 0
251 182 0
255 182 0
0 186 0
4 186 0
8 186 0
12 186 0
16 186 0
20 186 0
24 186 0
28 186 0
32 186 0
36 186 0
40 186 0
44 186 0
48 186 0
52 186 0
56 186 0
60 186 0
65 186 0
69 186 0
73 186 0
77 186 0
81 186 0
85 186 0
89 186 0
93 186 0
97 186 0
101 186 0
105 186 0
109 186 0
113 186 0
117 186 0
121 186 0
125 186 0
130 186 0
134 186 0
138 186 0
142 186 0
146 186 0
150 186 0
154 186 0
158 186 0
162 186 0
166 186 0
170 186 0
174 186 0
178 186 0
182 186 0
186 186 0
190 186 0
195 186 0
199 186 0
203 186 0
207 186 0
211 186 0
215 186 0
219 186 0
223 186 0
227 186 0
231 186 0
235 186 0
239 186 0
243 186 0
247 186 0
251 186 0
255 186 0
0 190 0
4 190 0
8 190 0
12 190 0
16 190 0
20 190 0
24 190 0
28 190 0
32 190 0
36 190 0
40 190 0
44 190 0
48 190 0
52 190 0
56 190 0
60 190 0
65 190 0
69 190 0
73 190 0
77 190 0
81 190 0
85 190 0
89 190 0
93 190 0
97 190 0
101 190 0
105 190 0
109 190 0
113 190 0
117 190 0
121 190 0
125 190 0
130 190 0
134 190 0
138 190 0
142 190 0
146 190 0
150 190 0
154 190 0
158 190 0
162 190 0
166 190 0
170 190 0
174 190 0
178 190 0
182 190 0
186 190 0
190 190 0
195 190 0
199 190 0
203 190 0
207 190 0
211 190 0
215 190 0
219 190 0
223 190 0
227 190 0
231 190 0
235 190 0
239 190 0
243 190 0
247 190 0
251 190 0
255 190 0
0 195 0
4 195 0
8 195 0
12 195 0
16 195 0
20 195 0
24 195 0
28 195 0
32 195 0
36 195 0
40 195 0
44 195 0
48 195 0
52 195 0
56 195 0
60 195 0
65 195 0
69 195 0
73 195 0
77 195 0
81 195 0
85 195 0
89 195 0
93 195 0
97 195 0
101 195 0
105 195 0
109 195 0
113 195 0
117 195 0
121 195 0
125 195 0
130 195 0
134 195 0
138 195 0
142 195 0
146 195 0
150 195 0
154 195 0
158 195 0
162 195 0
166 195 0
170 195 0
174 195 0
178 195 0
182 195 0
186 195 0
190 195 0
195 195 0
199 195 0
203 195 0
207 195 0
211 195 0
215 195 0
219 195 0
223 195 0
227 195 0
231 195 0
235 195 0
239 195 0
243 195 0
247 195 0
251 195 0
255 195 0
0 199 0
4 199 0
8 199 0
12 199 0
16 199 0
20 199 0
24 199 0
28 199 0
32 199 0
36 199 0
40 199 0
44 199 0
48 199 0
52 199 0
56 199 0
60 199 0
65 199 0
69 199 0
73 199 0
77 199 0
81 199 0
85 199 0
89 199 0
93 199 0
97 199 0
101 199 0
105 199 0
109 199 0
113 199 0
117 199 0
121 199 0
125 199 0
130 199 0
134 199 0
138 199 0
142 199 0
146 199 0
150 199 0
154 199 0
158 199 0
162 199 0
166 199 0
170 199 0
174 199 0
178 199 0
182 199 0
186 199 0
190 199 0
195 199 0
199 199 0
203 199 0
207 199 0
211 199 0
215 199 0
219 199 0
223 199 0
227 199 0
231 199 0
235 199 0
239 199 0
243 199 0
247 199 0
251 199 0
255 199 0
0 203 0
4 203 0
8 203 0
12 203 0
16 203 0
20 203 0
24 203 0
28 203 0
32 203 0
36 203 0
40 203 0
44 203 0
48 203 0
52 203 0
56 203 0
60 203 0
65 203 0
69 203 0
73 203 0
77 203 0
81 203 0
85 203 0
89 203 0
93 203 0
97 203 0
101 203 0
105 203 0
109 203 0
113 203 0
117 203 0
121 203 0
125 203 0
130 203 0
134 203 0
138 203 0
142 203 0
146 203 0
150 203 0
154 203 0
158 203 0
162 203 0
166 203 0
170 203 0
174 203 0
178 203 0
182 203 0
186 203 0
190 203 0
195 203 0
199 203 0
203 203 0
207 203 0
211 203 0
215 203 0
219 203 0
223 203 0
227 203 0
231 203 0
235 203 0
239 203 0
243 203 0
247 203 0
251 203 0
255 203 0
0 207 0
4 207 0
8 207 0
12 207 0
16 207 0
20 207 0
24 207 0
28 207 0
32 207 0
36 207 0
40 207 0
44 207 0
48 207 0
52 207 0
56 207 0
60 207 0
65 207 0
69 207 0
73 207 0
77 207 0
81 207 0
85 207 0
89 207 0
93 207 0
97 207 0
101 207 0
105 207 0
109 207 0
113 207 0
117 207 0
121 207 0
125 207 0
130 207 0
134 207 0
138 207 0
142 207 0
146 207 0
150 207 0
154 207 0
158 207 0
162 207 0
166 207 0
170 207 0
174 207 0
178 207 0
182 207 0
186 207 0
190 207 0
195 207 0
199 207 0
203 207 0
207 207 0
211 207 0
215 207 0
219 207 0
223 207 0
227 207 0
231 207 0
235 207 0
239 207 0
243 207 0
247 207 0
251 207 0
255 207 0
0 211 0
4 211 0
8 211 0
12 211 0
16 211 0
20 211 0
24 211 0
28 211 0
32 211 0
36 211 0
40 211 0
44 211 0
48 211 0
52 211 0
56 211 0
60 211 0
65 211 0
69 211 0
73 211 0
77 211 0
81 211 0
85 211 0
89 211 0
93 211 0
97 211 0
101 211 0
105 211 0
109 211 0
113 211 0
117 211 0
121 211 0
125 211 0
130 211 0
134 211 0
138 211 0
142 211 0
146 211 0
150 211 0
154 211 0
158 211 0
162 211 0
166 211 0
170 211 0
174 211 0
178 211 0
182 211 0
186 211 0
190 211 0
195 211 0
199 211 0
203 211 0
207 211 0
211 211 0
215 211 0
219 211 0
223 211 0
227 211 0
231 211 0
235 211 0
239 211 0
243 211 0
247 211 0
251 211 0
255 211 0
0 215 0
4 215 0
8 215 0
12 215 0
16 215 0
20 215 0
24 215 0
28 215 0
32 215 0
36 215 0
40 215 0
44 215 0
48 215 0
52 215 0
56 215 0
60 215 0
65 215 0
69 215 0
73 215 0
77 215 0
81 215 0
85 215 0
89 215 0
93 215 0
97 215 0
101 215 0
105 215 0
109 215 0
113 215 0
117 215 0
121 215 0
125 215 0
130 215 0
134 215 0
138 215 0
142 215 0
146 215 0
150 215 0
154 215 0
158 215 0
162 215 0
166 215 0
170 215 0
174 215 0
178 215 0
182 215 0
186 215 0
190 215 0
195 215 0
199 215 0
203 215 0
207 215 0
211 215 0
215 215 0
219 215 0
223 215 0
227 215 0
231 215 0
235 215 0
239 215 0
243 215 0
247 215 0
251 215 0
255 215 0
0 219 0
4 219 0
8 219 0
12 219 0
16 219 0
20 219 0
24 219 0
28 219 0
32 219 0
36 219 0
40 219 0
44 219 0
48 219 0
52 219 0
56 219 0
60 219 0
65 219 0
69 219 0
73 219 0
77 219 0
81 219 0
85 219 0
89 219 0
93 219 0
97 219 0
101 219 0
105 219 0
109 219 0
113 219 0
117 219 0
121 219 0
125 219 0
130 219 0
134 219 0
138 219 0
142 219 0
146 219 0
150 219 0
154 219 0
158 219 0
162 219 0
166 219 0
170 219 0
174 219 0
178 219 0
182 219 0
186 219 0
190 219 0
195 219 0
199 219 0
203 219 0
207 219 0
211 219 0
215 219 0
219 219 0
223 219 0
227 219 0
231 219 0
235 219 0
239 219 0
243 219 0
247 219 0
251 219 0
255 219 0
0 223 0
4 223 0
8 223 0
12 223 0
16 223 0
20 223 0
24 223 0
28 223 0
32 223 0
36 223 0
40 223 0
44 223 0
48 223 0
52 223 0
56 223 0
60 223 0
65 223 0
69 223 0
73 223 0
77 223 0
81 223 0
85 223 0
89 223 0
93 223 0
97 223 0
101 223 0
105 223 0
109 223 0
113 223 0
117 223 0
121 223 0
125 223 0
130 223 0
134 223 0
138 223 0
142 223 0
146 223 0
150 223 0
154 223 0
158 223 0
162 223 0
166 223 0
170 223 0
174 223 0
178 223 0
182 223 0
186 223 0
190 223 0
195 223 0
199 223 0
203 223 0
207 223 0
211 223 0
215 223 0
219 223 0
223 223 0
227 223 0
231 223 0
235 223 0
239 223 0
243 223 0
247 223 0
251 223 0
255 223 0
0 227 0
4 227 0
8 227 0
12 227 0
16 227 0
20 227 0
24 227 0
28 227 0
32 227 0
36 227 0
40 227 0
44 227 0
48 227 0
52 227 0
56 227 0
60 227 0
65 227 0
69 227 0
73 227 0
77 227 0
81 227 0
85 227 0
89 227 0
93 227 0
97 227 0
101 227 0
105 227 0
109 227 0
113 227 0
117 227 0
121 227 0
125 227 0
130 227 0
134 227 0
138 227 0
142 227 0
146 227 0
150 227 0
154 227 0
158 227 0
162 227 0
166 227 0
170 227 0
174 227 0
178 227 0
182 227 0
186 227 0
190 227 0
195 227 0
199 227 0
203 227 0
207 227 0
211 227 0
215 227 0
219 227 0
223 227 0
227 227 0
231 227 0
235 227 0
239 227 0
243 227 0
247 227 0
251 227 0
255 227 0
0 231 0
4 231 0
8 231 0
12 231 0
16 231 0
20 231 0
24 231 0
28 231 0
32 231 0
36 231 0
40 231 0
44 231 0
48 231 0
52 231 0
56 231 0
60 231 0
65 231 0
69 231 0
73 231 0
77 231 0
81 231 0
85 231 0
89 231 0
93 231 0
97 231 0
101 231 0
105 231 0
109 231 0
113 231 0
117 231 0
121 231 0
125 231 0
130 231 0
134 231 0
138 231 0
142 231 0
146 231 0
150 231 0
154 231 0
158 231 0
162 231 0
166 231 0
170 231 0
174 231 0
178 231 0
182 231 0
186 231 0
190 231 0
195 231 0
199 231 0
203 231 0
207 231 0
211 231 0
215 231 0
219 231 0
223 231 0
227 231 0
231 231 0
235 231 0
239 231 0
243 231 0
247 231 0
251 231 0
255 231 0
0 235 0
4 235 0
8 235 0
12 235 0
16 235 0
20 235 0
24 235 0
28 235 0
32 235 0
36 235 0
40 235 0
44 235 0
48 235 0
52 235 0
56 235 0
60 235 0
65 235 0
69 235 0
73 235 0
77 235 0
81 235 0
85 235 0
89 235 0
93 235 0
97 235 0
101 235 0
105 235 0
109 235 0
113 235 0
117 235 0
121 235 0
125 235 0
130 235 0
134 235 0
138 235 0
142 235 0
146 235 0
150 235 0
154 235 0
158 235 0
162 235 0
166 235 0
170 235 0
174 235 0
178 235 0
182 235 0
186 235 0
190 235 0
195 235 0
199 235 0
203 235 0
207 235 0
211 235 0
215 235 0
219 235 0
223 235 0
227 235 0
231 235 0
235 235 0
239 235 0
243 235 0
247 235 0
251 235 0
255 235 0
0 239 0
4 239 0
8 239 0
12 239 0
16 239 0
20 239 0
24 239 0
28 239 0
32 239 0
36 239 0
40 239 0
44 239 0
48 239 0
52 239 0
56 239 0
60 239 0
65 239 0
69 239 0
73 239 0
77 239 0
81 239 0
85 239 0
89 239 0
93 239 0
97 239 0
101 239 0
105 239 0
109 239 0
113 239 0
117 239 0
121 239 0
125 239 0
130 239 0
134 239 0
138 239 0
142 239 0
146 239 0
150 239 0
154 239 0
158 239 0
162 239 0
166 239 0
170 239 0
174 239 0
178 239 0
182 239 0
186 239 0
190 239 0
195 239 0
199 239 0
203 239 0
207 239 0
211 239 0
215 239 0
219 239 0
223 239 0
227 239 0
231 239 0
235 239 0
239 239 0
243 239 0
247 239 0
251 239 0
255 239 0
0 243 0
4 243 0
8 243 0
12 243 0
16 243 0
20 243 0
24 243 0
28 243 0
32 243 0
36 243 0
40 243 0
44 243 0
48 243 0
52 243 0
56 243 0
60 243 0
65 243 0
69 243 0
73 243 0
77 243 0
81 243 0
85 243 0
89 243 0
93 243 0
97 243 0
101 243 0
105 243 0
109 243 0
113 243 0
117 243 0
121 243 0
125 243 0
130 243 0
134 243 0
138 243 0
142 243 0
146 243 0
150 243 0
154 243 0
158 243 0
162 243 0
166 243 0
170 243 0
174 243 0
178 243 0
182 243 0
186 243 0
190 243 0
195 243 0
199 243 0
203 243 0
207 243 0
211 243 0
215 243 0
219 243 0
223 243 0
227 243 0
231 243 0
235 243 0
239 243 0
243 243 0
247 243 0
251 243 0
255 243 0
0 247 0
4 247 0
8 247 0
12 247 0
16 247 0
20 247 0
24 247 0
28 247 0
32 247 0
36 247 0
40 247 0
44 247 0
48 247 0
52 247 0
56 247 0
60 247 0
65 247 0
69 247 0
73 247 0
77 247 0
81 247 0
85 247 0
89 247 0
93 247 0
97 247 0
101 247 0
105 247 0
109 247 0
113 247 0
117 247 0
121 247 0
125 247 0
130 247 0
134 247 0
138 247 0
142 247 0
146 247 0
150 247 0
154 247 0
158 247 0
162 247 0
166 247 0
170 247 0
174 247 0
178 247 0
182 247 0
186 247 0
190 247 0
195 247 0
199 247 0
203 247 0
207 247 0
211 247 0
215 247 0
219 247 0
223 247 0
227 247 0
231 247 0
235 247 0
239 247 0
243 247 0
247 247 0
251 247 0
255 247 0
0 251 0
4 251 0
8 251 0
12 251 0
16 251 0
20 251 0
24 251 0
28 251 0
32 251 0
36 251 0
40 251 0
44 251 0
48 251 0
52 251 0
56 251 0
60 251 0
65 251 0
69 251 0
73 251 0
77 251 0
81 251 0
85 251 0
89 251 0
93 251 0
97 251 0
101 251 0
105 251 0
109 251 0
113 251 0
117 251 0
121 251 0
125 251 0
130 251 0
134 251 0
138 251 0
142 251 0
146 251 0
150 251 0
154 251 0
158 251 0
162 251 0
166 251 0
170 251 0
174 251 0
178 251 0
182 251 0
186 251 0
190 251 0
195 251 0
199 251 0
203 251 0
207 251 0
211 251 0
215 251 0
219 251 0
223 251 0
227 251 0
231 251 0
235 251 0
239 251 0
243 251 0
247 251 0
251 251 0
255 251 0
0 255 0
4 255 0
8 255 0
12 255 0
16 255 0
20 255 0
24 255 0
28 255 0
32 255 0
36 255 0
40 255 0
44 255 0
48 255 0
52 255 0
56 255 0
60 255 0
65 255 0
69 255 0
73 255 0
77 255 0
81 255 0
85 255 0
89 255 0
93 255 0
97 255 0
101 255 0
105 255 0
109 255 0
113 255 0
117 255 0
121 255 0
125 255 0
130 255 0
134 255 0
138 255 0
142 255 0
146 255 0
150 255 0
154 255 0
158 255 0
162 255 0
166 255 0
170 255 0
174 255 0
178 255 0
182 255 0
186 255 0
190 255 0
195 255 0
199 255 0
203 255 0
207 255 0
211 255 0
215 255 0
219 255 0
223 255 0
227 255 0
231 255 0
235 255 0
239 255 0
243 255 0
247 255 0
251 255 0
255 255 0
